# xmcd
#
# Track frame offsets: 
#        150
#        25411
#        48199
#        72335
#        90210
#        117022
#        138055
#        165470
#        188619
#        227665
#        246635
#        281314
#        296132
#        312620
#        326270
#
# Disc length: 4608 seconds
#
# Revision: 0
# Processed by: cddbd v1.5.2PL0 Copyright (c) Steve Scherf et al.
# Submitted via: ExactAudioCopy v0.95b4
#
DISCID=c911fe0f
DTITLE=The Mick Fleetwood Blues Band - Blue Again!
DYEAR=2008
DGENRE=Blues
TTITLE0=The Mick Fleetwood Blues Band - Red Hot Gal
TTITLE1=The Mick Fleetwood Blues Band - Looking For Somebody
TTITLE2=The Mick Fleetwood Blues Band - Fleetwood Boogie
TTITLE3=The Mick Fleetwood Blues Band - Stop Messin' Around
TTITLE4=The Mick Fleetwood Blues Band - Rattlesnake Shake
TTITLE5=The Mick Fleetwood Blues Band - When We Do The Lucky Devil
TTITLE6=The Mick Fleetwood Blues Band - Love That Burns
TTITLE7=The Mick Fleetwood Blues Band - Rollin' Man \\ Bayou Queen
TTITLE8=The Mick Fleetwood Blues Band - Black Magic Woman
TTITLE9=The Mick Fleetwood Blues Band - I Got A Hole In My Shoe
TTITLE10=The Mick Fleetwood Blues Band - Shake Your Moneymaker
TTITLE11=The Mick Fleetwood Blues Band - Albatross
TTITLE12=The Mick Fleetwood Blues Band - Napili Noctourne
TTITLE13=The Mick Fleetwood Blues Band - The Supernatural
TTITLE14=The Mick Fleetwood Blues Band - La Mer D'Amour
EXTD=
EXTT0=
EXTT1=
EXTT2=
EXTT3=
EXTT4=
EXTT5=
EXTT6=
EXTT7=
EXTT8=
EXTT9=
EXTT10=
EXTT11=
EXTT12=
EXTT13=
EXTT14=
PLAYORDER=
